<svg width="17" height="17" viewBox="0 0 17 17" fill="none" xmlns="http://www.w3.org/2000/svg">
<path fill-rule="evenodd" clip-rule="evenodd" d="M16.2626 8.89772C16.2626 6.77599 15.4198 4.74116 13.9195 3.24087C12.4192 1.74058 10.3844 0.89772 8.26263 0.89772C6.1409 0.89772 4.10607 1.74058 2.60578 3.24087C1.10549 4.74116 0.262634 6.77599 0.262634 8.89772C0.262634 11.0195 1.10549 13.0543 2.60578 14.5546C4.10607 16.0549 6.1409 16.8977 8.26263 16.8977C10.3844 16.8977 12.4192 16.0549 13.9195 14.5546C15.4198 13.0543 16.2626 11.0195 16.2626 8.89772ZM7.26263 11.8977C7.26263 12.1629 7.36799 12.4173 7.55553 12.6048C7.74306 12.7924 7.99742 12.8977 8.26263 12.8977C8.52785 12.8977 8.7822 12.7924 8.96974 12.6048C9.15728 12.4173 9.26263 12.1629 9.26263 11.8977V9.89772C9.26263 9.6325 9.15728 9.37815 8.96974 9.19061C8.7822 9.00308 8.52785 8.89772 8.26263 8.89772C7.99742 8.89772 7.74306 9.00308 7.55553 9.19061C7.36799 9.37815 7.26263 9.6325 7.26263 9.89772V11.8977ZM7.26263 5.89772C7.26263 6.16294 7.36799 6.41729 7.55553 6.60483C7.74306 6.79236 7.99742 6.89772 8.26263 6.89772C8.52785 6.89772 8.7822 6.79236 8.96974 6.60483C9.15728 6.41729 9.26263 6.16294 9.26263 5.89772C9.26263 5.6325 9.15728 5.37815 8.96974 5.19061C8.7822 5.00308 8.52785 4.89772 8.26263 4.89772C7.99742 4.89772 7.74306 5.00308 7.55553 5.19061C7.36799 5.37815 7.26263 5.6325 7.26263 5.89772Z" fill="#6D7175"/>
</svg>
